<svg width="3000" height="50" xmlns="http://www.w3.org/2000/svg"><title>background</title><path fill="none" d="M-1-1h3002v52H-1z"/><g><title>Layer 1</title><g stroke="null"><path class="st0" d="M837.64 19.8c817.44-12.505 890.194-14.736 1444.36.235l-16 36.032H-41.471c0-17.207-171.53-46.903-171.53-64.11C167.88-1.856 476.127 22.393 837.64 19.8z" fill-opacity="0"/><path class="st0" d="M1424.36 100.223C606.92 112.729 534.166 114.959-20 99.988l16-36.032h2307.47c0 17.208 171.53 46.904 171.53 64.111-380.88-6.189-689.127-30.438-1050.64-27.844z" fill-opacity="0" fill="#1d5297"/><path class="st0" d="M1424.36 380.223C606.92 392.729 534.166 394.959-20 379.988l16-36.032h2307.47c0 17.208 171.53 46.904 171.53 64.111-380.88-6.189-689.127-30.438-1050.64-27.844zM1652.448 30.485C705.919 43.772 621.678 46.141-20 30.237l18.526-38.28h2671.858c656-11.72 414.616 41.83 414.616 60.11-441.028-6.575-1013.95-24.337-1432.552-21.582z" fill="#1d5297"/></g></g></svg>