<svg xmlns="http://www.w3.org/2000/svg" width="43" height="40" viewBox="0 0 43 40"><defs><style>.a,.e{fill:none}.a{stroke:#2e578b;stroke-miterlimit:10;stroke-width:2px}.b,.c{fill:#ff8c4e;stroke:#fff;stroke-width:.5px}.c{fill:#cbdde9}.d{stroke:none}</style></defs><path class="a" d="M1 1h34v36H1zM1 13h34M1 25h34M22 31h8M22 19h8M22 7h8M6 31h4M6 19h4M6 7h4"/><g class="b"><path class="d" d="M23 26h6v14h-6z"/><path class="e" d="M23.25 26.25h5.5v13.5h-5.5z"/></g><g class="c"><path class="d" d="M29 23h7v17h-7z"/><path class="e" d="M29.25 23.25h6.5v16.5h-6.5z"/></g><g class="c"><path class="d" d="M36 19h7v21h-7z"/><path class="e" d="M36.25 19.25h6.5v20.5h-6.5z"/></g></svg>