<svg xmlns="http://www.w3.org/2000/svg" width="43" height="40" viewBox="0 0 43 40"><defs><style>.a,.f{fill:none}.a{stroke:#2e578b;stroke-miterlimit:10;stroke-width:2px}.b{fill:#ff8c4e}.b,.d{stroke:#fff;stroke-width:.5px}.c{fill:#ff7c3b}.d{fill:#cbdde9}.e,.g{stroke:none}.g{fill:#fff}</style></defs><path class="a" d="M1 1h34v36H1zM1 13h34M1 25h34M22 31h8M22 19h8M22 7h8M6 31h4M6 19h4M6 7h4"/><g class="b"><path class="e" d="M23 26h6v14h-6z"/><path class="f" d="M23.25 26.25h5.5v13.5h-5.5z"/></g><g class="c"><path class="e" d="M35.75 39.75h-6.5v-16.5h6.5v16.5z"/><path class="g" d="M29.5 23.5v16h6v-16h-6M29 23h7v17h-7V23z"/></g><g class="d"><path class="e" d="M36 19h7v21h-7z"/><path class="f" d="M36.25 19.25h6.5v20.5h-6.5z"/></g></svg>