<svg xmlns="http://www.w3.org/2000/svg" width="41" height="41" viewBox="0 0 41 41"><defs><style>.a,.g{fill:none}.a{stroke:#2e578b;stroke-miterlimit:10;stroke-width:2px}.b{fill:#ff8c4e}.c,.d{fill:#ff7c3b;stroke:#fff;stroke-width:.5px}.d{fill:#ff6a17}.e,.f{stroke:none}.f{fill:#fff}</style></defs><path class="a" d="M1 1h34v36H1zM1 13h34M1 25h34M22 31h8M22 19h8M22 7h8M6 31h4M6 19h4M6 7h4"/><g class="b"><path class="e" d="M26.75 40.75h-5.5v-13.5h5.5v13.5z"/><path class="f" d="M21.5 27.5v13h5v-13h-5M21 27h6v14h-6V27z"/></g><g class="c"><path class="e" d="M27 24h7v17h-7z"/><path class="g" d="M27.25 24.25h6.5v16.5h-6.5z"/></g><g class="d"><path class="e" d="M34 20h7v21h-7z"/><path class="g" d="M34.25 20.25h6.5v20.5h-6.5z"/></g></svg>