<svg xmlns="http://www.w3.org/2000/svg" width="197.563" height="34.715" viewBox="0 0 197.563 34.715"><defs><style>.a{fill:none}.b{clip-path:url(#a)}.c,.k{fill:#f68b51}.d,.f{fill:#4580c2}.d,.e,.g,.h,.i,.k,.l,.m,.n{fill-rule:evenodd}.e{fill:#2e578c}.f{stroke:rgba(0,0,0,0)}.g{fill:#fbce3b}.h{fill:#eca93e}.i{fill:#edb248}.j{fill:#f1f1f2}.l{fill:#c56428}.m{fill:#f26a23}.n{fill:#ebeef2}</style><clipPath id="a"><path class="a" d="M0 0h197.563v34.715H0z"/></clipPath></defs><g class="b"><path class="c" d="M79.827 23.417c.245 1.5 1.609 2.064 3.113 2.064 1.469 0 2.642-.631 2.677-1.4.053-1.162-.859-1.852-2.153-2.1-.892-.172-3.568-.7-3.568-.7-3.253-.6-5.107-1.536-5.107-4.3 0-3.6 3.113-5.946 7.555-5.946 4.372 0 7.275 1.994 7.975 5.037l-5.107 1.014a2.725 2.725 0 0 0-2.938-2.064c-1.5 0-2.257.632-2.4 1.364-.092.481.14.882 1.733 1.224 1.03.222 4.128.84 4.128.84 3.323.7 4.862 2.693 4.862 5.282 0 3.883-3.358 5.911-7.975 5.911-4.127 0-7.66-1.5-8.254-5.107zM130.843 15.432a17.068 17.068 0 0 1 .14 2.143c0 7.132-5.094 12.262-12.191 12.262a12.3 12.3 0 1 1-.105-24.593c5.235 0 9.838 2.459 11.489 7.062l-5.587 1.616a6.062 6.062 0 0 0-5.9-3.373 6.74 6.74 0 0 0-6.746 6.991 6.828 6.828 0 0 0 6.922 7.027 6.173 6.173 0 0 0 6.218-4.216h-7.2v-4.919zM53.157 28.91h-5.762V19.6h-9.908v9.31h-5.8V5.37h5.8v9.165h9.908v-9.17h5.762zM74.025 20.09c0 5.586-4.427 9.31-9.662 9.31-5.34 0-9.767-3.724-9.767-9.31 0-5.551 4.427-9.275 9.767-9.275 5.235.001 9.662 3.725 9.662 9.275zm-5.411 0a4.311 4.311 0 1 0-4.251 4.567 4.388 4.388 0 0 0 4.25-4.567z"/><path class="c" d="M106.292 28.135a9.58 9.58 0 0 1-4.814 1.3c-4.392 0-7.027-2.389-7.027-7.027v-6.673h-3.2v-4.462h3.2V6.581l5.621-1.211v5.9h5.2v4.465h-5.2v6.113c0 1.827.878 2.565 2.354 2.565a5.74 5.74 0 0 0 2.565-.7zM148.766 17.737V28.91h-5.411v-1.3a7.793 7.793 0 0 1-5.27 1.827c-3.935 0-6.57-2.284-6.57-5.762 0-3.443 2.635-5.692 7.343-5.692h4.5v-.352a2.351 2.351 0 0 0-2.494-2.459c-1.687 0-2.671.667-2.952 2.213l-5.308-1.091c.773-3.408 3.865-5.551 8.081-5.551 4.954.003 8.081 2.497 8.081 6.994zm-5.411 4.216v-.387h-3.865c-1.405 0-2.283.738-2.283 1.827 0 1.124.983 1.827 2.459 1.827a3.455 3.455 0 0 0 3.689-3.266zM164.644 28.135a9.579 9.579 0 0 1-4.813 1.3c-4.392 0-7.026-2.389-7.026-7.027v-6.673h-3.2v-4.462h3.2V6.581l5.621-1.211v5.9h5.2v4.465h-5.2v6.113c0 1.827.878 2.565 2.354 2.565a5.742 5.742 0 0 0 2.565-.7z"/><path class="c" d="M183.194 20.09c0 5.586-4.427 9.31-9.662 9.31-5.34 0-9.767-3.724-9.767-9.31 0-5.551 4.427-9.275 9.767-9.275 5.235.001 9.662 3.725 9.662 9.275zm-5.411 0a4.311 4.311 0 1 0-4.251 4.567 4.388 4.388 0 0 0 4.251-4.567zM197.558 11.166l-.246 5.621h-1.014c-3.935 0-6.078 2.038-6.078 6.606v5.516h-5.622V12.483l5.621-1.211v3.373a6.812 6.812 0 0 1 6.078-3.619 4.819 4.819 0 0 1 1.261.14z"/><g><path class="d" d="M18.973 25.509c-.987.955-1.974 2.259-2.962 3.214.474 2.491-.453 3.588.664 4.481.4.322 2.857 1.007 4.232.213.031-1.293-.677-1.677-1.431-2.162-.762-1.639-.489-4.13-.5-5.745"/><path class="e" d="M19.539 33.777a2.249 2.249 0 0 0-1.391-1.638 1.82 1.82 0 0 1 .867 1.641c.175.008.351.008.524-.003zM20.718 33.513a2.245 2.245 0 0 0-1.384-1.611 1.793 1.793 0 0 1 .85 1.788 2.759 2.759 0 0 0 .534-.177z"/><path class="d" d="M17.819 12.612c-.508.74-.736 2.3 3.32 4.577a34.886 34.886 0 0 1-2.243 3.482 2.454 2.454 0 0 0-.341 2.693 6.434 6.434 0 0 0 .933 1.041 3.934 3.934 0 0 0 1.92-.072 2.6 2.6 0 0 0 .386-2.881s3.419-3.581 3.2-4.658-5.56-6.534-7.175-4.182z"/><path class="e" d="M21.794 21.452s-1.385 1.142-1.734 1.34a4.059 4.059 0 0 0 .806-.348s.615.751.164 1.386a1.1 1.1 0 0 0 .273-1.564 6.522 6.522 0 0 0 .508-.74z"/><path class="d" d="M7.526 20.794a1.476 1.476 0 0 1-.236.745c-.233.371-.368.327.214.645a4.382 4.382 0 0 0 1.386.43c.821.134.629.042.267-.725a6.418 6.418 0 0 0-.56-.987c-.794-1.112-1.039-1.037-1.072-.108M4.616 20.406c-.3.556.159.643.749.849a3.016 3.016 0 0 0 .677.151c.664.072.491-.024.2-.561a9.861 9.861 0 0 0-.587-.955c-1.159-1.667-.605-.3-1.041.516M2.106 20.156a3.118 3.118 0 0 1-.014.383c-.044.462-.1.384.478.435a3.332 3.332 0 0 0 .764-.008c.73-.109.464-.364.083-.789a3.23 3.23 0 0 0-.431-.4c-1.443-1.111-.9-.33-.88.379"/><path class="f" d="M10.221 28.278a13.154 13.154 0 0 1-2.582-2.215c-.552-.644-1.242-1.058-1.839-1.662a8.606 8.606 0 0 0-2.655-1.923 2.591 2.591 0 0 0-2.279.38c-.266.122-.629.357-.924.122a.3.3 0 0 1-.1-.37 2.71 2.71 0 0 1 .681-.968 5.434 5.434 0 0 1 6.086-.464 6.08 6.08 0 0 0 2.354.885 2.244 2.244 0 0 0 1.653-.47 2.176 2.176 0 0 0 .678-1.264 3.894 3.894 0 0 0-.141-2.031c-.312-.938-.874-1.79-1.236-2.716q-.222-.566-.405-1.15c-.133-.077-.2-.03-.421-.384a2.928 2.928 0 0 1-.066-1.67q-.054-.345-.088-.69c-.585-.4-1.868-.252-2.013-.96S8.715 8.591 9.186 8.25l.049-.174c-.485-.8-1.53-.745-1.566-1.393-.036-.674 4.1-2.8 4.1-2.8a19.782 19.782 0 0 0-.734 2.062 33.321 33.321 0 0 0 4.84 3.2 11 11 0 0 1 3 2.643c1 1.344.427 2.928.656 4.577.078.561.116 1.128.139 1.694a21.735 21.735 0 0 1-.09 3.09c-.252 2.458-.38 4.458-2.111 6.3a5.566 5.566 0 0 1-3.992 2.064 5.513 5.513 0 0 1-3.256-1.235z"/><g><path class="g" d="M3.489 22.622a15.953 15.953 0 0 1 4.3 3.948c1.858 2.206 6.5 5.458 10.334.348 3.609-4.812 1.91-11.558 1.7-12.326l-.024-.078c-.122-.156-3.34-4.263-6.288-4.868-.786.683-.939 1.885.108 3.958 1.761 3.487 3.169 8.572.038 11.7a4.245 4.245 0 0 1-1.667 1.052c-2.226.734-3.4-.616-4.8-1.918a6.727 6.727 0 0 0-3.701-1.816z"/><path class="h" d="M18.548 26.296a7.43 7.43 0 0 1-3.719-1.521 5.15 5.15 0 0 0 3.288 2.144c.152-.204.295-.412.431-.623zM12.285 26.605a8.63 8.63 0 0 0 2.244 2.912 4.866 4.866 0 0 0 .884-.3 7.168 7.168 0 0 1-3.128-2.612zM7.553 26.302l.229.269.106.124a1.542 1.542 0 0 1 .1-.98 5.189 5.189 0 0 0-.435.587zM9.099 27.861q.241.2.5.384a2.339 2.339 0 0 1 .018-1.465 5.334 5.334 0 0 0-.518 1.081z"/><path class="i" d="M6.067 24.686q.179.181.357.368a3.138 3.138 0 0 1 .083-.772 3.768 3.768 0 0 0-.44.404z"/><path class="h" d="M15.826 22.102a7.486 7.486 0 0 1 4.323-.005q.055-.3.1-.6a5.329 5.329 0 0 0-4.423.605zM20.332 17.676a23.936 23.936 0 0 0-.071-.7 6.626 6.626 0 0 0-4.546 1.385 7.326 7.326 0 0 1 4.617-.685zM19.146 13.743a21.686 21.686 0 0 0-.391-.433c-3.189 0-4.05 1.481-4.05 1.481a7.052 7.052 0 0 1 4.441-1.048z"/><path class="h" d="M20.288 17.22a18.889 18.889 0 0 0-.352-2.142 5.82 5.82 0 0 1-.228-.142c-1.019-.664-5.5-3.382-6.811-4.161a2.637 2.637 0 0 0-.014.6c1.393 1.915 4.483 5.179 7.405 5.845z"/></g><g><path class="d" d="M10.129 25.009a2.029 2.029 0 0 1 1.848-.887c2.051.268 1.4 2.694.91 4.122a11.64 11.64 0 0 0-.581 3.185c0 1.41.539 1.835-.118 2.385a5.574 5.574 0 0 1-3.58 1c-1.138-.258-1.169-2.6.645-3.2a7.152 7.152 0 0 0 .442-3.378c-.026-.79-.1-2.448.433-3.228"/><path class="e" d="M9.691 34.791a5.78 5.78 0 0 0 .479-.089 2.089 2.089 0 0 1 .566-1.9 2.253 2.253 0 0 0-1.045 1.989zM8.59 34.808a2.391 2.391 0 0 1 .55-2.112 2.168 2.168 0 0 0-1.031 1.815.925.925 0 0 0 .481.297z"/></g><g><path class="e" d="M9.646 22.046s-.237 1.357.683 1.812a1.852 1.852 0 0 0 2.213-.178c.66-.792 1.639-2.428-1.011-4.022-1.637-.984-1.721 2.36-1.721 2.36zM9.875 15.539c.346.749.657 1.328.672 1.38 0 0 2.14-2.65 1.741-3.089-.444-.485-2.082 1.122-2.413 1.709z"/><path class="d" d="M11.954 11.659c2.294 2.213-2.472 5.15-2.472 5.15a8.4 8.4 0 0 1 1.666 2.267c.492.82.683.683 1.284 1.366s-1.112 1.7-1.112 1.7-5.735-3.1-5.717-5.084a14.856 14.856 0 0 1 2.677-3.825c.676-.691 2.577-2.632 3.674-1.574z"/><path class="d" d="M9.728 21.034s-.428 2.112.833 2.727a2.929 2.929 0 0 0 1.542-.305s1.294-1.985.329-3.014-2.704.592-2.704.592z"/><path class="e" d="M9.7 21.185s1.659.889 1.947.971a1.553 1.553 0 0 1-.848-.127s-.427.808.068 1.314c0 0-.762-.136-.489-1.406l-.692-.715z"/></g><g><path class="d" d="M11.188 5.177S12.05.089 14.163.002c1.388-.057 2.087 1.713 2.087 1.713a4.435 4.435 0 0 1 2.4.712.933.933 0 0 1 1.05-.475c.662.225 1.375 1.7 1.113 4.125a2.105 2.105 0 0 1 1.512 1.037 1.119 1.119 0 0 1-.725.463c-.437.037-2.325-.65-2.837-.2a1.631 1.631 0 0 0-.675 1.612 5 5 0 0 1-3.012-1.388c-.938-1.187-1.726-3.487-3.888-2.424z"/><path class="j" d="M18.369 5.543s.519-1.707 1.516-2.185a18.391 18.391 0 0 0 .269 2.468 14.942 14.942 0 0 0-1.785-.283zM13.859 2.043s1.284.615 2.13 3.278a18.4 18.4 0 0 0-2.909-.26 6.966 6.966 0 0 0 .779-3.018z"/><path class="e" d="M14.392 3.223c.313 0 .567.35.567.781s-.254.781-.567.781-.567-.35-.567-.781.254-.781.567-.781M19.179 5.299a.534.534 0 0 0 .446-.591.534.534 0 0 0-.446-.591.347.347 0 0 0-.137.031 1.581 1.581 0 0 0-.306.517v.043a.534.534 0 0 0 .443.591z"/><path class="g" d="M20.714 10.73a15.087 15.087 0 0 0 2.213-.178 1.927 1.927 0 0 0 1.8-2.172c-.092-1.319-1.834-1.9-3.111-.971-1.045-.232-2.206-.929-3.251.116a1.2 1.2 0 0 0-.316 1.451s-2.172-.351-2.923-1.457-1.721-2.586-2.786-2.691a1.807 1.807 0 0 0-2.049.929c-.546 1.065-.819 2.991 3.223 6.038s5.827 3.867 6.706 3.866c1.125 0 1.193-.42 2.486-.6.66-.093 1.161-1.216.437-2.186a13.1 13.1 0 0 0-2.429-2.145z"/><path class="k" d="M13.557 6.523s-.874-1.011-1.721-.191c-.7.679-.178 1.817-.178 1.817s.051-.982.506-.915c0 0 .382 2.445 3.96 4.89s4.576 2.226 5.354 2.022 1.666-.6 1.366-1.229a13.572 13.572 0 0 0-2.13-2.186 2.611 2.611 0 0 1-2.376.068 13.066 13.066 0 0 1-5.436-4.07s.072-.457.6-.2"/><path class="l" d="M17.105 9.723l.077.038z"/><path class="m" d="M20.486 10.854a2.939 2.939 0 0 1-2.148-.053A12.085 12.085 0 0 1 15.48 9.22a6.048 6.048 0 0 0-2.335.07 11.536 11.536 0 0 0 2.981 2.836c3.578 2.445 4.575 2.226 5.354 2.022a4.4 4.4 0 0 0 .792-.282 4.218 4.218 0 0 0-1.786-3.012z"/><path class="h" d="M19.54 8.24c.363-.117.643.373.164.587-.067.181.041.378.335.448a.576.576 0 0 1-.5-1.035M23.647 8.09c-.3-.1-.531.308-.135.484.055.149-.034.312-.277.369a.475.475 0 0 0 .412-.854"/><path class="n" d="M19.431 12.338c.583.171.992-1.114 1.1-1.511a2.547 2.547 0 0 1-1.466.154c.051.15.1.3.131.415.098.355.002.874.235.942zM22.926 10.552a2.894 2.894 0 0 1-.343.063c.058.111.112.218.152.3.152.335.141.863.381.893.592.073.791-1.209.841-1.645a3.522 3.522 0 0 1-1.031.389z"/></g></g><g><path class="d" d="M19.218 25.419c-.984.952-1.968 2.251-2.951 3.2.472 2.482-.452 3.575.662 4.465.4.321 2.848 1 4.218.212.031-1.288-.674-1.671-1.426-2.155-.76-1.633-.487-4.116-.5-5.725"/><path class="e" d="M19.781 33.663a2.242 2.242 0 0 0-1.386-1.632 1.814 1.814 0 0 1 .864 1.635c.174.002.349.002.522-.003zM20.955 33.395a2.237 2.237 0 0 0-1.379-1.6 1.787 1.787 0 0 1 .847 1.781 2.745 2.745 0 0 0 .532-.181z"/><path class="d" d="M18.067 12.567c-.506.737-.733 2.29 3.309 4.561a34.822 34.822 0 0 1-2.236 3.47 2.446 2.446 0 0 0-.34 2.683 6.4 6.4 0 0 0 .93 1.037 3.921 3.921 0 0 0 1.914-.072 2.589 2.589 0 0 0 .385-2.871s3.407-3.568 3.193-4.641-5.545-6.51-7.155-4.167z"/><path class="e" d="M22.029 21.375s-1.381 1.138-1.728 1.335a4.043 4.043 0 0 0 .8-.347s.613.749.164 1.382a1.1 1.1 0 0 0 .272-1.558 6.56 6.56 0 0 0 .506-.737z"/><path class="d" d="M7.81 20.715a1.471 1.471 0 0 1-.235.742c-.232.37-.367.326.214.643a4.368 4.368 0 0 0 1.381.429c.818.134.627.042.266-.723a6.388 6.388 0 0 0-.558-.984c-.791-1.109-1.035-1.033-1.068-.108M4.911 20.332c-.3.554.158.641.746.846a3 3 0 0 0 .675.151c.661.071.49-.024.2-.559a9.79 9.79 0 0 0-.585-.952c-1.155-1.661-.6-.3-1.037.514M2.409 20.084a3.1 3.1 0 0 1-.014.381c-.044.461-.1.383.475.434a3.316 3.316 0 0 0 .761-.008c.728-.109.463-.363.083-.786a3.2 3.2 0 0 0-.43-.4c-1.438-1.108-.9-.329-.876.377"/><path class="f" d="M10.495 28.176a13.107 13.107 0 0 1-2.57-2.207c-.55-.642-1.238-1.054-1.832-1.656a8.576 8.576 0 0 0-2.645-1.91 2.583 2.583 0 0 0-2.272.379c-.265.121-.627.355-.92.122a.3.3 0 0 1-.1-.368 2.7 2.7 0 0 1 .669-.966 5.416 5.416 0 0 1 6.067-.463 6.059 6.059 0 0 0 2.346.882 2.236 2.236 0 0 0 1.647-.468 2.169 2.169 0 0 0 .676-1.26 3.88 3.88 0 0 0-.141-2.024c-.311-.935-.871-1.784-1.232-2.706a15.377 15.377 0 0 1-.4-1.146c-.133-.077-.2-.03-.42-.383a2.918 2.918 0 0 1-.066-1.669q-.054-.344-.088-.688c-.583-.4-1.862-.251-2.006-.957S8.99 8.564 9.464 8.221l.049-.174c-.483-.8-1.525-.742-1.56-1.388-.036-.672 4.084-2.795 4.084-2.795a19.711 19.711 0 0 0-.731 2.055 33.2 33.2 0 0 0 4.819 3.188 10.957 10.957 0 0 1 2.991 2.634c1 1.34.426 2.918.654 4.561.078.559.116 1.124.138 1.688a21.652 21.652 0 0 1-.083 3.074c-.251 2.45-.378 4.442-2.1 6.275a5.547 5.547 0 0 1-3.979 2.057 5.5 5.5 0 0 1-3.251-1.22z"/><g><path class="g" d="M3.787 22.54a15.9 15.9 0 0 1 4.281 3.934c1.851 2.2 6.48 5.439 10.3.347 3.6-4.8 1.9-11.517 1.695-12.282l-.024-.078c-.121-.156-3.329-4.248-6.266-4.85-.783.681-.936 1.878.108 3.944 1.755 3.475 3.158 8.542.038 11.654a4.231 4.231 0 0 1-1.662 1.048c-2.218.732-3.393-.614-4.78-1.911a6.7 6.7 0 0 0-3.69-1.806z"/><path class="h" d="M18.793 26.203a7.4 7.4 0 0 1-3.706-1.516 5.132 5.132 0 0 0 3.277 2.137c.153-.204.295-.411.429-.621zM12.553 26.511a8.6 8.6 0 0 0 2.236 2.9 4.845 4.845 0 0 0 .88-.3 7.146 7.146 0 0 1-3.116-2.6zM7.837 26.209c.076.089.153.178.228.268q.051.061.106.123a1.537 1.537 0 0 1 .1-.976 5.166 5.166 0 0 0-.434.585zM9.378 27.763q.24.2.5.383a2.332 2.332 0 0 1 .018-1.46 5.327 5.327 0 0 0-.518 1.077z"/><path class="i" d="M6.356 24.6q.178.18.356.367a3.127 3.127 0 0 1 .082-.769 3.752 3.752 0 0 0-.438.402z"/><path class="h" d="M16.082 22.024a7.461 7.461 0 0 1 4.308-.005q.055-.3.1-.6a5.31 5.31 0 0 0-4.408.605zM20.572 17.613c-.02-.242-.044-.474-.071-.7a6.6 6.6 0 0 0-4.531 1.38 7.3 7.3 0 0 1 4.602-.68zM19.391 13.695a24.848 24.848 0 0 0-.389-.432c-3.178 0-4.036 1.476-4.036 1.476a7.03 7.03 0 0 1 4.425-1.044z"/><path class="h" d="M20.528 17.156a18.8 18.8 0 0 0-.351-2.134 7.253 7.253 0 0 1-.227-.141c-1.016-.662-5.478-3.37-6.788-4.146a2.647 2.647 0 0 0-.014.6c1.389 1.908 4.469 5.161 7.38 5.821z"/></g><g><path class="d" d="M10.404 24.921a2.022 2.022 0 0 1 1.842-.884c2.043.267 1.4 2.684.907 4.108a11.6 11.6 0 0 0-.579 3.174c0 1.405.537 1.828-.117 2.377a5.554 5.554 0 0 1-3.567.995c-1.135-.257-1.166-2.591.643-3.186a7.131 7.131 0 0 0 .441-3.366 6.5 6.5 0 0 1 .431-3.217"/><path class="e" d="M9.968 34.668a5.78 5.78 0 0 0 .479-.089 2.079 2.079 0 0 1 .563-1.89 2.248 2.248 0 0 0-1.042 1.979zM8.87 34.684a2.383 2.383 0 0 1 .548-2.1 2.161 2.161 0 0 0-1.027 1.808.922.922 0 0 0 .479.292z"/></g><g><path class="e" d="M9.922 21.967s-.236 1.352.68 1.806a1.846 1.846 0 0 0 2.205-.177c.658-.789 1.633-2.42-1.007-4.008-1.631-.981-1.715 2.352-1.715 2.352zM10.151 15.48c.345.746.655 1.324.669 1.375 0 0 2.133-2.641 1.735-3.078-.442-.478-2.075 1.123-2.404 1.703z"/><path class="d" d="M12.222 11.618c2.286 2.2-2.464 5.131-2.464 5.131a8.378 8.378 0 0 1 1.66 2.259c.49.817.68.681 1.28 1.361s-1.109 1.691-1.109 1.691-5.715-3.088-5.7-5.066a14.8 14.8 0 0 1 2.668-3.811c.677-.685 2.571-2.62 3.665-1.565z"/><path class="d" d="M10.004 20.96s-.427 2.1.83 2.717a2.92 2.92 0 0 0 1.537-.3s1.29-1.978.328-3-2.695.583-2.695.583z"/><path class="e" d="M9.976 21.11s1.654.886 1.941.967a1.548 1.548 0 0 1-.845-.127s-.425.805.068 1.309c0 0-.76-.136-.487-1.4l-.69-.712z"/></g><g><path class="d" d="M11.46 5.158s.859-5.07 2.965-5.157c1.384-.057 2.08 1.707 2.08 1.707a4.42 4.42 0 0 1 2.392.71.93.93 0 0 1 1.046-.473c.66.224 1.37 1.694 1.109 4.111a2.1 2.1 0 0 1 1.507 1.034 1.115 1.115 0 0 1-.722.461c-.436.037-2.317-.648-2.828-.2a1.626 1.626 0 0 0-.673 1.607 4.981 4.981 0 0 1-3-1.383c-.937-1.183-1.721-3.475-3.876-2.417z"/><path class="j" d="M18.617 5.524s.517-1.7 1.51-2.178a18.428 18.428 0 0 0 .268 2.459 14.9 14.9 0 0 0-1.778-.281zM14.125 2.035s1.279.612 2.123 3.267a18.338 18.338 0 0 0-2.9-.259 6.934 6.934 0 0 0 .777-3.008z"/><path class="e" d="M14.655 3.212c.312 0 .565.348.565.778s-.253.778-.565.778-.565-.348-.565-.778.253-.778.565-.778M19.424 5.28a.532.532 0 0 0 .445-.589.532.532 0 0 0-.445-.589.347.347 0 0 0-.137.031 1.579 1.579 0 0 0-.305.515v.043a.533.533 0 0 0 .442.589z"/><path class="g" d="M20.953 10.692a15.037 15.037 0 0 0 2.205-.177 1.921 1.921 0 0 0 1.8-2.164c-.092-1.315-1.828-1.893-3.1-.968-1.041-.231-2.2-.926-3.24.116a1.194 1.194 0 0 0-.316 1.446s-2.164-.349-2.913-1.452-1.715-2.577-2.776-2.681a1.8 1.8 0 0 0-2.042.925c-.544 1.062-.817 2.981 3.212 6.016s5.807 3.853 6.683 3.852c1.12 0 1.189-.418 2.477-.6.658-.092 1.157-1.211.436-2.178a13.057 13.057 0 0 0-2.426-2.135z"/><path class="k" d="M13.821 6.5s-.871-1.007-1.715-.191c-.7.676-.177 1.81-.177 1.81s.05-.979.5-.912c0 0 .381 2.436 3.947 4.873s4.56 2.219 5.336 2.015 1.661-.6 1.361-1.225a13.535 13.535 0 0 0-2.124-2.178 2.6 2.6 0 0 1-2.368.068 13.02 13.02 0 0 1-5.417-4.056s.072-.455.6-.2"/><path class="l" d="M17.357 9.689l.077.038z"/><path class="m" d="M20.727 10.813a2.929 2.929 0 0 1-2.141-.053 12.03 12.03 0 0 1-2.849-1.575 6.026 6.026 0 0 0-2.327.07 11.5 11.5 0 0 0 2.971 2.826c3.566 2.436 4.56 2.219 5.336 2.015a4.387 4.387 0 0 0 .788-.281 4.2 4.2 0 0 0-1.778-3.002z"/><path class="h" d="M19.784 8.211c.362-.117.641.372.164.585-.068.18.041.377.334.446a.573.573 0 0 1-.5-1.031M23.878 8.062c-.3-.1-.529.307-.135.483.055.148-.034.311-.276.368a.473.473 0 0 0 .41-.851"/><path class="n" d="M19.674 12.295c.581.171.988-1.11 1.1-1.506a2.539 2.539 0 0 1-1.461.153c.051.149.1.3.13.413.095.354-.001.872.231.94zM23.158 10.515a2.869 2.869 0 0 1-.342.063c.058.11.112.217.151.3.151.334.141.86.38.889.589.073.788-1.205.838-1.639a3.5 3.5 0 0 1-1.027.387z"/></g></g></g></svg>