<svg xmlns="http://www.w3.org/2000/svg" width="438.6" height="346.372" viewBox="0 0 438.6 346.372"><defs><style>.a{fill:#172d55}.b{fill:#223a74}.c{fill:#3a6fb6}.d{fill:#1b5faa}.e{fill:#1e4382}.f{fill:#f36e2c}.g{fill:#a9a5a4}.h{fill:#313a3f}.i{fill:#d0cccb}.j{fill:#1f2528}.k{fill:#f3f3f3}.l{fill:#e5e4e4}.m{fill:#cb8b70}.n{fill:#3d3937}.o{fill:#b77a65}.p{fill:#9e6757}.q{fill:#342b26}.r{fill:#2e2b28}.s{fill:#b87356}.t{fill:none;stroke:#2159a8;stroke-miterlimit:10;stroke-width:17px}.u{fill:#2159a8}</style></defs><g transform="translate(92.352 118.197)"><path class="a" d="M93.6 95.171h54.2c3.154 0 4.3.7 4.433.89a6.577 6.577 0 0 1 0 3.658l-22.747 47.621h-8.335c-6.217-7.816-22.862-29.385-28.255-42.871-2.13-5.326-1.343-7.439-1.052-7.959a3.584 3.584 0 0 1 1.755-1.339m-1.031-8.106s-14.406 2.4-7.2 20.416 31.9 47.963 31.9 47.963h17.321l25.209-52.765s5.4-15.61-12.006-15.61z"/><path class="b" d="M200.457 146.845a10.208 10.208 0 0 0 7.152 12.536 10.208 10.208 0 0 0 12.537-7.154l26.277-96.122a10.208 10.208 0 0 0-7.151-12.534 10.207 10.207 0 0 0-12.537 7.152z"/><path class="c" d="M262.875 90.669l23.412-72.635S294.087.023 272.481.023h-71.436s-12.6-1.8-21.012 26.413-16.21 66.634-16.21 66.634-1.2 15.007 13.207 15.007h64.833a26.074 26.074 0 0 0 21.012-17.408zM90.775 127.286h132.667a10.81 10.81 0 0 1 10.81 10.81 10.811 10.811 0 0 1-10.81 10.81H90.775a10.811 10.811 0 0 1-10.81-10.81 10.809 10.809 0 0 1 10.81-10.81z"/><path class="b" d="M101.473 188.557a9.1 9.1 0 0 1 4.128.989h45.972a9.05 9.05 0 0 1 1.116-.472v-16.58a7.923 7.923 0 0 1-6.025-7.643v-9.92h-46.441a4.565 4.565 0 0 1-4.521-5.443h119.164a4.569 4.569 0 0 1-3.612 5.358 4.539 4.539 0 0 1-.91.084h-47.616v9.92a7.872 7.872 0 0 1-4.017 6.834v17.389a8.937 8.937 0 0 1 1.115.471h44.967a9.106 9.106 0 0 1 4.127-.991 8.893 8.893 0 1 1-9.038 8.891 8.759 8.759 0 0 1 .525-2.963h-36.2a8.694 8.694 0 0 1 .525 2.963 9.038 9.038 0 0 1-18.075 0 8.76 8.76 0 0 1 .525-2.963h-37.2a8.758 8.758 0 0 1 .524 2.963 9.038 9.038 0 1 1-9.186-8.89h.16z"/><path class="b" d="M174.038 95.169h54.2c3.154 0 4.3.7 4.432.89a6.6 6.6 0 0 1 0 3.657l-22.748 47.619h-8.335c-6.219-7.818-22.864-29.385-28.256-42.872-2.13-5.325-1.342-7.437-1.049-7.959a3.579 3.579 0 0 1 1.754-1.338m-1.026-8.1s-14.406 2.4-7.2 20.413 31.9 47.964 31.9 47.964h17.321l25.208-52.767s5.4-15.608-12.005-15.608z"/><g><g transform="translate(0 84.965)"><rect class="d" width="346.249" height="10.596" rx="3.123"/><path class="d" d="M9.165 7.633h12.159v135.578H9.165zM295.641 7.633H307.8v135.578h-12.159z"/><path class="e" d="M33.481 10.596H45.64v132.615H33.481zM319.958 10.596h12.159v132.615h-12.159z"/></g><path class="f" d="M182.965 85.433l.073-29.828 22.597.056-.073 29.828z"/><path class="f" d="M189.501 61.627a7.712 7.712 0 0 1 7.685 7.722l-.008 3.013a7.714 7.714 0 0 1-7.723 7.685l-5.424-.013a7.714 7.714 0 0 1-7.685-7.723l.008-3.013a7.715 7.715 0 0 1 7.724-7.685l5.424.014m.008-3.143l-5.423-.013a10.845 10.845 0 0 0-10.874 10.818l-.008 3.013a10.846 10.846 0 0 0 10.82 10.874l5.424.014a10.848 10.848 0 0 0 10.874-10.82l.009-3.013a10.846 10.846 0 0 0-10.819-10.872z"/><path class="c" d="M65.755 78.991h86.05a3.144 3.144 0 0 1 3.145 3.144 3.145 3.145 0 0 1-3.145 3.145h-86.05a3.144 3.144 0 0 1-3.144-3.144 3.144 3.144 0 0 1 3.144-3.145z"/><path class="b" d="M44.831 78.87c0 3.328 2.162 6.028 4.815 6.028h69.409c2.659 0 4.816-2.7 4.816-6.028V28.655c0-3.328-2.162-6.026-4.816-6.026H49.646c-2.66 0-4.815 2.7-4.815 6.026z"/></g><ellipse class="d" cx="5.746" cy="6.224" rx="5.746" ry="6.224" transform="rotate(-34 125.188 -97.83)"/></g><path class="g" d="M27.969 340.301h37.838a2.811 2.811 0 0 0 2.811-2.811v-11.669a2.811 2.811 0 0 0-2.811-2.811H46.715a2.807 2.807 0 0 0-1.484.425l-18.747 11.669a2.811 2.811 0 0 0 1.485 5.2z"/><rect class="h" width="71.956" height="24.447" rx="11.567" transform="rotate(-71.71 188.517 98.608)"/><path class="h" d="M60.19 246.169l9.185 77.319a3.129 3.129 0 0 1-2.8 3.432l-17.372-1.087a3.131 3.131 0 0 1-3.432-2.8l-7.6-74.626a11.063 11.063 0 0 1 9.885-12.128 11.065 11.065 0 0 1 12.134 9.89zM106.178 195.022l-5.21 56.922c-.636 6.954-6.078 11.99-12.159 11.25l-2.293-.279c-6.077-.74-10.488-6.977-9.853-13.931l5.21-56.922c.636-6.954 6.078-11.99 12.159-11.25l2.293.278c6.078.744 10.49 6.982 9.853 13.932z"/><path class="i" d="M64.761 346.358H102.6a2.81 2.81 0 0 0 2.81-2.811v-11.669a2.81 2.81 0 0 0-2.81-2.81H83.505a2.812 2.812 0 0 0-1.485.424l-18.746 11.67a2.811 2.811 0 0 0 1.485 5.2z"/><path class="h" d="M99.959 252.881l5.549 77.666a3.132 3.132 0 0 1-2.956 3.3l-17.3-1.9a3.131 3.131 0 0 1-3.3-2.954l-4.089-74.9a11.062 11.062 0 0 1 10.443-11.65 11.064 11.064 0 0 1 11.653 10.441z"/><path class="j" d="M105.52 330.56l-4.887-72.817.97 68.972c-.07 3.721-2.549 5.3-5.586 6.384l6.533.746a3.132 3.132 0 0 0 2.97-3.285zM69.17 323.74l-8.571-72.476 4.465 68.833c.119 3.72-2.278 5.423-5.255 6.66l6.563.415a3.13 3.13 0 0 0 2.8-3.431z"/><path class="k" d="M51.629 151.621a8.689 8.689 0 0 0 8.7-8.681V86.967a16.121 16.121 0 0 0-16.135 16.108l-1.254 39.593a8.688 8.688 0 0 0 8.417 8.952c.088-.001.18.001.272.001z"/><path class="l" d="M55.8 154.598a7.747 7.747 0 0 0-1.234-10.886 7.709 7.709 0 0 0-.248-.189l-13.532-9.838a7.187 7.187 0 0 1-8.943 10.52l11.75 11.417a8.407 8.407 0 0 0 .844.712 8.3 8.3 0 0 0 11.363-1.736z"/><rect class="k" width="15.195" height="13.499" rx="6.387" transform="rotate(-49.38 168.616 40.184)"/><path class="m" d="M36.7 143.555a7.174 7.174 0 0 0 4-4.9 4.07 4.07 0 0 0-1.551-4.164l-19.75-14.786a3.691 3.691 0 0 0-5.011.545 3.76 3.76 0 0 0 .269 5.1l17.06 17.536a4.1 4.1 0 0 0 4.093 1.017 7.134 7.134 0 0 0 .89-.348z"/><path class="n" d="M58.978 18.319c5.274 0 9.55 5.187 9.55 11.586s-5.656 20.063-10.93 20.063-6.973-10.376-6.973-16.775 3.078-14.874 8.353-14.874z"/><rect class="h" width="51.833" height="33.654" rx="15.924" transform="translate(55.165 168.227)"/><path class="j" d="M56.561 178.332l50.417 6.171a16.823 16.823 0 0 0-16.813-16.272H71.987a16.826 16.826 0 0 0-15.426 10.101z"/><path class="k" d="M101.428 174.81H58.474c-3.08 0-5.584-2.169-5.61-4.858l-.751-77.922a5 5 0 0 1 3.855-4.694l16.593-4.765a6.4 6.4 0 0 1 2.918-.139l27.114 5.02a5.109 5.109 0 0 1 4.447 4.793v77.665c-.002 2.706-2.515 4.9-5.612 4.9z"/><rect class="m" width="14.577" height="22.015" rx="6.897" transform="translate(69.1 68.742)"/><path class="o" d="M72.955 84.192a11.657 11.657 0 0 0 10.723-6.519v-.262c.405-9.478-3.264-7.289-7.289-7.289a7.288 7.288 0 0 0-7.289 7.289v6.171a12.6 12.6 0 0 0 3.855.61z"/><path class="m" d="M104.599 39.316c-.672 15.739-15.017 38.9-32.7 38.85-17.782 0-20.729-14.327-18.8-27.311.109-25.746 1.908-38.5 26.485-39.986 14.524-.882 25.759 11.019 25.015 28.447z"/><path class="p" d="M70.458 65.44a13.929 13.929 0 0 1-7.218-2 .374.374 0 1 1 .387-.64 13.288 13.288 0 0 0 15.006-.912.374.374 0 0 1 .462.588 13.992 13.992 0 0 1-8.637 2.964z"/><path class="p" d="M80.314 64.174a.372.372 0 0 1-.371-.34 2.494 2.494 0 0 0-.1-.5 2.476 2.476 0 0 0-3.088-1.647.373.373 0 1 1-.218-.714 3.221 3.221 0 0 1 4.147 2.8.374.374 0 0 1-.34.4z"/><path class="o" d="M83.263 26.117a141.653 141.653 0 0 0 14.026-8.458 22.248 22.248 0 0 0-17.713-6.794c-16.27.986-21.968 8.357-24.481 16.079a16.114 16.114 0 0 0 6.9.733c3.366-.312 18.013-.5 21.268-1.56z"/><ellipse class="q" cx="1.673" cy="1.673" rx="1.673" ry="1.673" transform="translate(60.74 43.497)"/><path class="n" d="M57.549 39.382l.291.818a1.075 1.075 0 0 0 1.336.671 23.71 23.71 0 0 1 6.054-1.059 1.079 1.079 0 0 0 1.015-1.1l-.014-.928a1.089 1.089 0 0 0-1.111-1.068h-.049a26.972 26.972 0 0 0-6.816 1.267 1.091 1.091 0 0 0-.714 1.367zM74.663 36.808l.015.863a1.074 1.074 0 0 0 1.052 1.062 23.752 23.752 0 0 1 6.075.931 1.078 1.078 0 0 0 1.313-.715l.287-.886a1.09 1.09 0 0 0-.715-1.366l-.044-.013a26.991 26.991 0 0 0-6.863-.978 1.091 1.091 0 0 0-1.118 1.062z"/><ellipse class="q" cx="1.673" cy="1.673" rx="1.673" ry="1.673" transform="translate(77.536 43.497)"/><path class="k" d="M108.519 152.321a8.69 8.69 0 0 1-8.7-8.681V87.664a16.123 16.123 0 0 1 16.136 16.108l1.254 39.594a8.689 8.689 0 0 1-8.418 8.951c-.088.002-.181.004-.272.004z"/><path class="n" d="M101.612 17.839c.05.932-17.378 7.833-18.35 8.074-3.256.809-17.9-.126-21.271-.072a14.7 14.7 0 0 1-9.421-2.777c-2.974-2.4-4.232-6.149-4.754-9.772a4.361 4.361 0 0 1 .461-3.3c.7-.933 2.481-1.161 3.059-.162-.642-2.295 1.307-4.7 3.726-5.46a11.923 11.923 0 0 1 7.48.61 74.173 74.173 0 0 0 7.109 2.643c5.081 1.258 10.512-.006 15.714.718 7.847 1.096 11.596 2.115 16.247 9.498zM95.617 50.924a3.072 3.072 0 0 0 2.11 2.983 8.954 8.954 0 0 0 1.735.453c.3.015.8.338 1.083.244a39.278 39.278 0 0 0 4.053-15.288 35.423 35.423 0 0 0-.443-7.424c-.862-1.206-2.275-1.711-4.472-1.068-2.76.81-3.421 4.2-3.775 6.66z"/><rect class="m" width="11.448" height="7.339" rx="3.408" transform="rotate(-68.787 89.455 -41.057)"/><path class="n" d="M95.362 37.045a5.575 5.575 0 0 0 2.767 1.357 7.207 7.207 0 0 0 3.388.034c2.008-.632 1.273 9.911 2.03 7.947.732-1.947 3.394-16.083 3.272-18.159a14.636 14.636 0 0 0-1.653-7.25 6.783 6.783 0 0 0-6.177-3.544 1.508 1.508 0 0 0-1.352.783c-.108.3-6.92 2.321-7.887 3.1-1.543 1.233-2.922 3.181-2.632 5.269.366 2.652 2.485 2.719 4.3 4.032 2.295 1.651 2.051 4.545 3.944 6.431z"/><path class="r" d="M61.991 23.492a14.693 14.693 0 0 1-9.421-2.777c-2.965-2.389-4.225-6.127-4.75-9.739a6.092 6.092 0 0 0 0 2.316c.522 3.623 1.78 7.376 4.754 9.772a14.7 14.7 0 0 0 9.421 2.777c3.188-.053 16.463.782 20.642.187-5.541-.196-17.768-2.583-20.646-2.536z"/><path class="l" d="M102.158 144.027a.385.385 0 0 1-.385-.385v-32.428a.386.386 0 1 1 .771 0v32.431a.385.385 0 0 1-.386.382zM52.706 144.027a.385.385 0 0 1-.385-.385v-32.428a.386.386 0 0 1 .771 0v32.431a.385.385 0 0 1-.386.382zM111.141 141.461a7.747 7.747 0 0 0-9.036 6.193c-.019.1-.036.2-.051.308l-2.347 16.565a7.348 7.348 0 0 1 .6-.925 7.187 7.187 0 0 1 12.884 3.893l4.577-15.731a8.534 8.534 0 0 0 .233-1.078 8.3 8.3 0 0 0-6.86-9.225z"/><rect class="k" width="13.5" height="15.196" rx="6.387" transform="rotate(-77.362 154.13 22.901)"/><path class="m" d="M110.346 163.508a7.175 7.175 0 0 0-6.207-1.233 4.071 4.071 0 0 0-2.952 3.321l-3.8 24.378a3.691 3.691 0 0 0 2.831 4.17 3.758 3.758 0 0 0 4.378-2.628l7.49-23.287a4.1 4.1 0 0 0-1.021-4.094 7.389 7.389 0 0 0-.719-.627zM92.593 197.326c.892.864-.038 3.269-2.076 5.371s-4.6 3.269-5.3 2.243c-1.237-1.817 1.141-2.143 3.178-4.245s3.306-4.231 4.198-3.369z"/><path class="m" d="M102.73 189.33c2.629 1.715 3.829 6.483-2.331 12.761-4.492 4.577-7.72 8.408-10.351 6.693s-2.363-6.752 1.374-11.965c3.828-5.337 8.677-9.201 11.308-7.489z"/><path class="m" d="M89.719 199.621a16.623 16.623 0 0 0-1.937 6.486c-.179 4.365 1.591 8.992 4.778 7.418a2.036 2.036 0 0 0 3.274-.4c1.251.424 2.41-.251 3.2-1.909 1.586.487 2.567-1.907 1.257-3.1-1.518-1.383-.308-5.506 1.82-8.083 3.108-3.749-12.392-.412-12.392-.412z"/><g><path class="m" d="M11.759 118.23c1.662-1.36 1.91-2.767.315-3.919.144-.44 1.543-3.603 1.56-3.977.054.01.629 3.174.684 3.18a5.978 5.978 0 0 0 .543 2.097c.805 1.768 2.242 2.834 3.192 2.4.418-.193.44-.54.262-1.02A12.408 12.408 0 0 1 19.18 119c.773 2.406.516 4.617-1.303 5.71a10.638 10.638 0 0 1-6.837.752 9.025 9.025 0 0 1-2.823-1.058z"/><path class="m" d="M18.056 118.008c-.953.44-2.389-.633-3.195-2.393a5.978 5.978 0 0 1-.543-2.102 2.592 2.592 0 0 0 1.439-.279 1 1 0 0 0 .638-1.208 24.57 24.57 0 0 0 .697 2.532c.451.994 1 1.819 1.226 2.433.176.48.155.829-.262 1.017z"/><path class="m" d="M15.657 113.429a2.594 2.594 0 0 1-1.46.11c-.054-.009-.11-.019-.164-.037a2.739 2.739 0 0 0-1.337-2.835 5.827 5.827 0 0 0-2.08-.844c-.66-2.469-.055-5.003 1.608-5.215s1.699 1.574 2.647 4.01c.602 1.55 1.462 2.797 1.558 3.68a1 1 0 0 1-.772 1.13z"/><path class="m" d="M13.505 114.401c1.637 1.182 1.55 2.866-.16 4.264a2.54 2.54 0 0 1 .274.86c.156 1.26-.76 2.507-2.674 3.527.384.812-.145 1.168-1.083 1.295a29.648 29.648 0 0 1-5.016-.22 1.537 1.537 0 0 1-.502-.129c-3.255-1.414-4.534-13.842.55-14.326a18.953 18.953 0 0 1 5.261.116 6.317 6.317 0 0 1 2.296.86 2.957 2.957 0 0 1 1.054 3.753z"/><ellipse class="s" cx="2.429" cy="2.395" rx="2.429" ry="2.395" transform="rotate(10.02 -620.294 108.274)"/><ellipse class="s" cx="2.429" cy="2.395" rx="2.429" ry="2.395" transform="rotate(10.02 -638.008 115.643)"/><ellipse class="s" cx="2.429" cy="2.749" rx="2.429" ry="2.749" transform="rotate(10.02 -656.115 114.252)"/><ellipse class="s" cx="2.429" cy="1.889" rx="2.429" ry="1.889" transform="rotate(10.02 -681.045 106.634)"/><g><ellipse class="m" cx="2.429" cy="2.395" rx="2.429" ry="2.395" transform="rotate(10.02 -619.421 104.212)"/><ellipse class="m" cx="2.429" cy="2.395" rx="2.429" ry="2.395" transform="rotate(10.02 -637.134 111.581)"/><ellipse class="m" cx="2.429" cy="2.749" rx="2.429" ry="2.749" transform="rotate(10.02 -655.241 110.19)"/><ellipse class="m" cx="2.429" cy="1.889" rx="2.429" ry="1.889" transform="rotate(10.02 -680.172 102.572)"/></g></g><g><path class="p" d="M66.619 55.187a3.22 3.22 0 0 1-1.923-.849 2.775 2.775 0 0 1-.784-1.582 1.5 1.5 0 0 1 .38-1.211c.217-.325 1.054-.829 1.474-1.465 1.481-2.245 2.12-4.175 2.892-5.329a.486.486 0 1 1 .807.541c-1.355 2.023-2.087 4.109-2.888 5.322-.421.639-1.259 1.143-1.491 1.492-.218.292-.21.239-.206.577a1.8 1.8 0 0 0 .511.975c.618.648 2.436.935 5.136.135a.486.486 0 1 1 .276.931 10.23 10.23 0 0 1-4.184.463z"/></g><g transform="translate(-1000.526 -340.341)"><path class="e" d="M1203.941 340.341h119v76.706h-119z"/><path class="c" d="M1209.952 346.962h105.914v62.612h-105.914z"/><path class="t" d="M1209.952 369.784h25.484v-22.822"/><path class="t" d="M1209.952 394.946h42.717v-47.984"/><circle class="e" cx="14.922" cy="14.922" r="14.922" transform="translate(1273.149 351.644)"/><path class="u" d="M1288.071 381.486l-27.186 28.088h54.372z"/></g></svg>