<svg xmlns="http://www.w3.org/2000/svg" width="484.478" height="352.996" viewBox="0 0 484.478 352.996"><defs><style>.a{fill:#3a6fb6}.b{fill:#223a74}.c{fill:#1e4382}.d{fill:#2159a8}.e{fill:#50c0db}.f{fill:#7998be}.g{fill:#023577}.h{fill:#2394af}</style></defs><g transform="translate(0 -302.871)"><path class="a" d="M450.344 531.585h24.758v124.282h-24.758z"/><path class="b" d="M448.888 531.585h10.68v124.282h-10.68z"/><path class="c" d="M162.942 532.557h291.284v119.912H162.942z"/><path class="a" d="M344.994 540.325h100.493v29.128H344.994zM344.994 575.279h100.493v29.128H344.994zM344.994 610.233h100.493v29.128H344.994zM264.389 540.325h67.498v99.037h-67.498zM192.07 540.325h67.497v99.037H192.07z"/><path class="b" d="M254.21 558.774a4.37 4.37 0 1 1-4.37-4.37 4.371 4.371 0 0 1 4.37 4.37zM279.94 558.774a4.37 4.37 0 1 1-4.37-4.37 4.371 4.371 0 0 1 4.37 4.37zM399.61 554.892a4.37 4.37 0 1 1-4.37-4.37 4.371 4.371 0 0 1 4.37 4.37zM399.61 590.815a4.37 4.37 0 1 1-4.37-4.37 4.371 4.371 0 0 1 4.37 4.37zM399.61 626.254a4.37 4.37 0 1 1-4.37-4.37 4.371 4.371 0 0 1 4.37 4.37z"/><rect class="a" width="51.46" height="23.303" rx="6.732" transform="translate(388.595 446.871)"/><path class="a" d="M384.226 446.871h24.517v63.112h-24.517z"/><path class="d" d="M445.153 519.207v-3.641a8.739 8.739 0 0 0-8.739-8.738h-49.76a8.739 8.739 0 0 0-8.739 8.738v3.641z"/><rect class="d" width="51.46" height="23.303" rx="6.732" transform="translate(367.477 446.871)"/><path class="b" d="M414.082 470.174h18.448v4.612h-18.448z"/><path class="e" d="M412.659 478.766h20.745v27.384h-20.745z"/><path class="e" d="M418.61 483.885a7.477 7.477 0 0 1 7.468 7.467v2.764a7.478 7.478 0 0 1-7.468 7.466h-4.98a7.476 7.476 0 0 1-7.468-7.468v-2.768a7.476 7.476 0 0 1 7.468-7.468h4.98m0-2.49h-4.98a9.958 9.958 0 0 0-9.958 9.958v2.77a9.958 9.958 0 0 0 9.958 9.958h4.98a9.959 9.959 0 0 0 9.958-9.957v-2.768a9.958 9.958 0 0 0-9.958-9.958z"/><path class="d" d="M363.107 446.871h24.517v63.112h-24.517z"/><path class="b" d="M424.035 519.207v-3.641a8.739 8.739 0 0 0-8.739-8.738h-49.761a8.739 8.739 0 0 0-8.739 8.738v3.641zM420.515 473.694h3.641v2.549h-3.641z"/><path class="e" d="M369.54 452.212h10.923v11.651H369.54z"/><path class="b" d="M394.663 464.956a1.457 1.457 0 0 1-1.457 1.455 1.455 1.455 0 0 1-1.456-1.455v-13.472a1.456 1.456 0 0 1 1.456-1.456 1.456 1.456 0 0 1 1.457 1.455zM399.761 464.956a1.457 1.457 0 0 1-1.457 1.455 1.455 1.455 0 0 1-1.456-1.455v-13.472a1.456 1.456 0 0 1 1.456-1.456 1.456 1.456 0 0 1 1.457 1.455zM255.245 486.412h20.745v27.384h-20.745z"/><path class="b" d="M261.191 491.225a7.783 7.783 0 0 1 7.775 7.775v2.768a7.783 7.783 0 0 1-7.775 7.773h-4.978a7.782 7.782 0 0 1-7.775-7.773V499a7.781 7.781 0 0 1 7.775-7.772h4.978m0-2.185h-4.978a9.958 9.958 0 0 0-9.959 9.957v2.768a9.957 9.957 0 0 0 9.958 9.957h4.979a9.956 9.956 0 0 0 9.959-9.955V499a9.959 9.959 0 0 0-9.958-9.957z"/><path class="a" d="M280.733 487.14h20.745v27.384h-20.745z"/><path class="a" d="M286.679 492.681a7.054 7.054 0 0 1 7.046 7.044v2.768a7.055 7.055 0 0 1-7.046 7.045H281.7a7.053 7.053 0 0 1-7.045-7.045v-2.768a7.053 7.053 0 0 1 7.045-7.044h4.98m0-2.913h-4.98a9.957 9.957 0 0 0-9.958 9.957v2.768a9.959 9.959 0 0 0 9.958 9.958h4.98a9.955 9.955 0 0 0 9.957-9.953v-2.768a9.956 9.956 0 0 0-9.953-9.957h-.005z"/><path class="e" d="M211 461.437a5.831 5.831 0 0 1 5.826 5.825v17.6a5.833 5.833 0 0 1-5.826 5.826h-5.947a5.834 5.834 0 0 1-5.826-5.826v-17.6a5.832 5.832 0 0 1 5.826-5.825H211m0-2.913h-5.947a8.737 8.737 0 0 0-8.739 8.737v17.6a8.739 8.739 0 0 0 8.739 8.739H211a8.74 8.74 0 0 0 8.739-8.739v-17.6a8.738 8.738 0 0 0-8.737-8.739z"/><rect class="a" width="30.949" height="44.785" rx="6.732" transform="translate(202.811 470.783)"/><path class="a" d="M209.547 459.131h17.477v19.298h-17.477z"/><path class="e" d="M206.113 458.524a5.462 5.462 0 0 0 5.437 4.975h13.472a5.462 5.462 0 0 0 5.437-4.976z"/><path class="c" d="M187.809 514.11a5.4 5.4 0 0 0 5.394 5.155H309.47a5.4 5.4 0 0 0 5.394-5.155z"/><path class="a" d="M163.433 519.748h321.045v13.592H163.433z"/><path class="g" d="M0 400.197h120.431v251.809H0z"/><path class="a" d="M43.793 400.197H127v251.809H43.793z"/><path class="a" d="M50.727 406.766h70.799v64.96H50.727z"/><path class="g" d="M50.727 468.807h70.799v2.919H50.727z"/><path class="g" d="M48.537 406.766h2.92v64.96h-2.92z"/><path class="c" d="M74.813 418.08h27.736v13.137H74.813z"/><path class="d" d="M104.013 454.573a2.191 2.191 0 0 1-2.191 2.191H74.814a2.191 2.191 0 0 1-2.191-2.191 2.191 2.191 0 0 1 2.191-2.191h27.008a2.191 2.191 0 0 1 2.191 2.191z"/><path class="a" d="M50.727 478.578h70.799v64.96H50.727z"/><path class="g" d="M50.727 540.619h70.799v2.919H50.727z"/><path class="g" d="M48.537 478.578h2.92v64.96h-2.92z"/><path class="c" d="M74.813 489.892h27.736v13.137H74.813z"/><path class="d" d="M104.013 526.386a2.191 2.191 0 0 1-2.191 2.191H74.814a2.191 2.191 0 0 1-2.191-2.191 2.191 2.191 0 0 1 2.191-2.191h27.008a2.191 2.191 0 0 1 2.191 2.191z"/><path class="a" d="M50.727 550.606h70.799v64.96H50.727z"/><path class="g" d="M50.727 612.647h70.799v2.919H50.727z"/><path class="g" d="M48.537 550.606h2.92v64.96h-2.92z"/><path class="c" d="M74.813 561.92h27.736v13.137H74.813z"/><path class="d" d="M104.013 598.415a2.192 2.192 0 0 1-2.191 2.191H74.814a2.192 2.192 0 0 1-2.191-2.191 2.192 2.192 0 0 1 2.191-2.192h27.008a2.192 2.192 0 0 1 2.191 2.192z"/><path class="h" d="M48.172 357.5h45.983v42.7H48.172z"/><path class="e" d="M78.827 357.499h22.991v42.699H78.827z"/><path class="h" d="M14.233 357.499h45.983v42.699H14.233z"/><path class="e" d="M44.888 357.499H67.88v42.699H44.888z"/><g transform="translate(82 -42)"><circle class="g" cx="24.038" cy="24.038" r="24.038" transform="translate(189 344.871)"/><circle class="c" cx="24.038" cy="24.038" r="24.038" transform="translate(193.452 344.871)"/><circle class="a" cx="20.477" cy="20.477" r="20.477" transform="translate(197.235 348.21)"/><path class="g" d="M219.155 371.612a1.555 1.555 0 0 1-1.33-.744l-9.013-14.722a1.558 1.558 0 1 1 2.616-1.693l.031.05.01.016 9.009 14.721a1.558 1.558 0 0 1-1.327 2.371z"/><path class="g" d="M219.152 371.616a1.558 1.558 0 0 1-1.555-1.478l-.551-10.715a1.559 1.559 0 0 1 3.113-.16l.551 10.715a1.56 1.56 0 0 1-1.476 1.637z"/></g></g></svg>